<?xml version="1.0" encoding="UTF-8"?>
<svg xmlns="http://www.w3.org/2000/svg" id="Layer_1" viewBox="0 82 252 26">
  <path class="st0 letter-m" d="M 19.4 107 V 90.8 l -7 10.6 h -0.1 l -7 -10.5 V 107 H 0 V 82.2 h 5.9 l 6.6 10.5 L 19 82.2 h 5.9 V 107 H 19.4 z" />
  <path class="st0 letter-a" d="M 61.6 107 l -2.3 -5.6 H 48.7 l -2.3 5.6 h -5.6 l 10.6 -25 h 5.1 l 10.6 25 H 61.6 z M 54 88.5 l -3.3 8.1 h 6.6 L 54 88.5 z" />
  <path class="st0 letter-x" d="M 98.2 107 l -5.6 -8.5 L 87 107 h -6.3 l 8.7 -12.6 l -8.4 -12.2 h 6.4 l 5.3 8.1 l 5.3 -8.1 h 6.3 l -8.4 12.1 l 8.7 12.7 H 98.2 z" />
  <!-- <polygon class="st1" points="211.4 55.6 255.7 2.6 263.1 72.1 272.2 31.9 " /> -->
  <!-- <polygon class="st2" points="211.4 55.6 166.9 22.7 166.9 72.7 107.5 40.1 " /> -->
  <path class="st3" d="M 140.3 107 V 90.8 l -7 10.6 h -0.1 l -7 -10.5 V 107 h -5.4 V 82.2 h 5.9 l 6.6 10.5 l 6.6 -10.5 h 5.9 V 107 H 140.3 z" />
  <path class="st3" d="M 164.1 107 V 82.2 h 5.5 V 107 H 164.1 z" />
  <path class="st3" d="M 205.5 107 l -12 -15.8 V 107 h -5.4 V 82.2 h 5.1 l 11.6 15.3 V 82.2 h 5.4 V 107 H 205.5 z" />
  <path class="st3" d="M 238 107 h -9.7 V 82.2 h 9.7 c 7.9 0 13.2 5.4 13.2 12.3 v 0.1 C 251.3 101.5 245.9 107 238 107 z M 245.6 94.6 c 0 -4.4 -3 -7.5 -7.5 -7.5 h -4.3 v 15 h 4.3 C 242.5 102 245.6 99 245.6 94.6 L 245.6 94.6 z" />
  <!-- <path class="st3" d="M164.1 75.4v-5.6h5.5v5.5L164.1 75.4 164.1 75.4z" /> -->
  <!-- <ellipse transform="matrix(0.7507 -0.6606 0.6606 0.7507 0.291 81.002)" class="st3" cx="107.5" cy="40.1" rx="2.7" ry="2.8" /> -->
  <!-- <ellipse transform="matrix(0.7506 -0.6607 0.6607 0.7506 26.6098 115.9437)" class="st3" cx="166.9" cy="22.7" rx="2.7" ry="2.7" /> -->
  <!-- <path class="st3" d="M213.4 53.7c-1-1.1-2.7-1.3-3.9-0.3 -1.1 1-1.2 2.7-0.2 3.9 1 1.1 2.7 1.2 3.9 0.2C214.3 56.6 214.4 54.9 213.4 53.7z" /> -->
  <!-- <path class="st3" d="M257.8 0.9c-1-1.1-2.7-1.3-3.9-0.3 -1.1 1-1.2 2.7-0.2 3.9 1 1.1 2.7 1.2 3.9 0.2C258.7 3.8 258.8 2 257.8 0.9z" /> -->
  <!-- <ellipse transform="matrix(0.7507 -0.6607 0.6607 0.7507 46.7693 187.8513)" class="st3" cx="272.3" cy="32" rx="2.7" ry="2.8" /> -->
  <!-- <ellipse transform="matrix(0.7507 -0.6606 0.6606 0.7507 17.9566 191.7964)" class="st3" cx="263.1" cy="72.1" rx="2.7" ry="2.7" /> -->
</svg>
